<?xml version="1.0" standalone="no"?>
<!DOCTYPE svg PUBLIC "-//W3C//DTD SVG 20010904//EN"
 "http://www.w3.org/TR/2001/REC-SVG-20010904/DTD/svg10.dtd">
<svg version="1.0" xmlns="http://www.w3.org/2000/svg"
 width="950.000000pt" height="118.000000pt" viewBox="0 0 950.000000 118.000000"
 preserveAspectRatio="xMidYMid meet">
<metadata>
Created by potrace 1.13, written by Peter Selinger 2001-2015
</metadata>
<g transform="translate(0.000000,118.000000) scale(0.100000,-0.100000)"
fill="#000000" stroke="none">
<path d="M2100 1040 c-34 -7 -34 -7 -5 -8 17 0 44 4 60 8 27 7 27 8 5 8 -14
-1 -41 -4 -60 -8z"/>
<path d="M1950 1020 c-25 -4 -94 -16 -155 -25 -60 -9 -234 -37 -385 -62 -269
-44 -276 -44 -330 -29 -67 19 -324 59 -348 54 -9 -2 55 -18 143 -37 197 -40
197 -40 192 -54 -2 -7 -37 -32 -78 -56 -107 -62 -264 -168 -280 -188 -17 -21
-24 -24 145 79 161 100 306 172 320 158 6 -6 3 -37 -8 -87 -9 -43 -20 -118
-24 -168 l-7 -90 -228 -3 -227 -2 0 90 c0 49 -2 90 -5 90 -3 0 -81 9 -173 20
l-167 21 -160 -21 c-88 -11 -163 -20 -167 -20 -5 0 -8 -121 -8 -270 l0 -269
33 -5 c138 -21 560 -20 651 2 l30 7 3 100 c2 54 6 102 9 105 3 3 157 5 342 5
l337 0 1 -103 c1 -56 4 -106 8 -110 4 -4 738 -8 1631 -10 1550 -2 1625 -1
1682 16 57 18 64 18 233 1 162 -17 336 -18 2335 -18 1188 -1 2170 2 2183 5 21
6 22 11 22 105 0 55 -2 99 -5 99 -2 0 -66 16 -142 37 l-138 36 -290 7 -290 7
-250 56 c-137 32 -250 57 -252 57 -2 0 -3 16 -3 35 l0 35 683 2 682 3 3 54 c2
37 -1 57 -10 62 -7 5 -440 9 -963 9 -918 0 -955 0 -1095 -21 -80 -12 -152 -23
-160 -26 -21 -7 6 -16 139 -48 l111 -27 0 -38 c0 -21 4 -41 9 -44 7 -5 337
-82 456 -107 22 -5 141 -31 263 -59 l224 -50 194 0 c147 0 196 -3 198 -12 3
-7 7 -25 10 -41 l6 -27 -425 0 c-418 0 -427 0 -554 26 l-130 26 -180 -26
c-158 -23 -212 -26 -448 -26 -155 0 -335 6 -426 15 -139 12 -177 12 -300 0
-90 -9 -255 -15 -449 -15 l-308 0 0 60 0 60 619 0 c551 0 621 2 635 16 9 8 14
20 11 24 -3 5 25 11 62 13 l68 3 -67 2 c-65 2 -68 3 -68 27 l0 25 -627 2 -628
3 -3 58 -3 57 618 0 618 1 118 28 c65 16 121 31 123 34 8 7 -15 13 -166 42
-98 18 -172 25 -275 27 -129 1 -121 2 105 12 170 7 227 12 185 17 -53 5 -48 6
45 8 58 2 150 6 205 10 116 7 143 2 -275 55 -192 25 -309 35 -387 33 -61 -1
-109 -5 -107 -9 3 -4 -3 -8 -13 -9 -16 0 -16 -1 2 -9 l20 -9 -20 -1 -20 -1 20
-9 c11 -5 36 -9 55 -10 19 -1 58 -8 85 -16 55 -14 35 -13 -92 6 -53 8 -78 8
-90 0 -15 -9 -13 -10 12 -6 17 3 46 2 65 -3 31 -8 26 -9 -35 -10 -115 -2 -214
-14 -185 -22 17 -5 5 -7 -35 -7 -51 1 -55 2 -25 8 27 6 16 8 -50 10 -86 2 -87
3 -16 15 47 8 40 17 -27 31 l-52 12 55 2 c41 1 50 4 35 10 -11 5 -15 9 -10 10
6 2 -3 6 -20 10 -21 5 -1 8 64 9 52 0 92 3 90 5 -2 2 -60 6 -129 9 -69 3 -114
2 -100 -2 l25 -7 -27 -7 c-34 -9 -36 -24 -5 -30 12 -2 -5 -4 -38 -4 -33 0 -85
-4 -115 -9 l-55 -10 45 -7 c34 -6 41 -10 30 -18 -11 -7 -5 -8 20 -4 27 5 32 4
20 -5 -12 -9 -6 -10 25 -6 24 3 34 2 26 -3 -16 -10 74 -20 284 -30 137 -6 142
-7 53 -9 -106 -2 -128 -7 -128 -28 0 -12 -47 -14 -275 -14 -236 0 -275 2 -275
15 0 19 -10 21 -223 41 -169 17 -187 17 -355 0 -97 -10 -187 -21 -199 -26 -23
-10 -23 -10 -23 -240 l0 -230 -140 0 -140 0 0 200 c0 110 -1 200 -3 200 -1 0
-79 9 -172 19 -94 11 -181 17 -195 15 -14 -2 -87 -11 -163 -18 -77 -8 -141
-17 -144 -20 -3 -3 -5 -73 -4 -156 1 -87 -3 -150 -8 -150 -5 0 -87 -12 -183
-26 -185 -27 -179 -27 -425 7 -79 10 -147 19 -153 19 -6 0 -10 58 -10 155 0
85 -3 155 -7 155 -5 0 -83 9 -175 19 -161 18 -172 18 -327 0 -89 -10 -165 -21
-171 -24 -6 -4 -10 -77 -10 -186 l0 -179 -150 0 -150 0 0 205 c0 113 -3 205
-7 205 -5 0 -80 9 -168 20 -167 21 -226 19 -440 -14 l-70 -11 -3 -87 -3 -88
-53 0 -53 0 -12 98 c-7 53 -19 124 -27 157 -20 86 -20 85 34 85 53 0 85 13 57
24 -9 3 -47 7 -83 7 l-67 1 60 10 c33 5 195 33 360 63 165 29 325 58 355 63
41 7 46 10 20 10 -19 0 -55 -4 -80 -8z m4688 -167 c-10 -2 -26 -2 -35 0 -10 3
-2 5 17 5 19 0 27 -2 18 -5z m117 -12 c26 -6 31 -9 15 -9 -14 -1 -43 3 -65 7
-26 6 -31 9 -15 9 14 1 43 -3 65 -7z m103 -18 c-10 -2 -26 -2 -35 0 -10 3 -2
5 17 5 19 0 27 -2 18 -5z m70 -10 c-10 -2 -26 -2 -35 0 -10 3 -2 5 17 5 19 0
27 -2 18 -5z m70 -10 c-10 -2 -26 -2 -35 0 -10 3 -2 5 17 5 19 0 27 -2 18 -5z
m75 -10 c-7 -2 -21 -2 -30 0 -10 3 -4 5 12 5 17 0 24 -2 18 -5z m60 -10 c-7
-2 -21 -2 -30 0 -10 3 -4 5 12 5 17 0 24 -2 18 -5z m-718 -23 c15 -7 10 -9
-22 -9 -24 -1 -43 4 -43 9 0 12 37 12 65 0z m383 3 c-21 -2 -57 -2 -80 0 -24
2 -7 4 37 4 44 0 63 -2 43 -4z"/>
<path d="M688 963 c7 -3 16 -2 19 1 4 3 -2 6 -13 5 -11 0 -14 -3 -6 -6z"/>
<path d="M5493 888 c7 -4 21 -8 32 -8 16 0 17 -2 5 -10 -13 -8 -13 -10 0 -14
42 -14 253 -56 277 -55 15 1 -12 10 -62 20 -106 23 -128 31 -63 24 33 -3 47
-1 45 7 -1 6 9 14 23 18 22 6 19 8 -20 13 -67 10 -250 13 -237 5z m117 -28
c20 -6 21 -8 5 -8 -11 0 -31 4 -45 8 -20 6 -21 8 -5 8 11 0 31 -4 45 -8z"/>
<path d="M5798 883 c7 -3 16 -2 19 1 4 3 -2 6 -13 5 -11 0 -14 -3 -6 -6z"/>
<path d="M5873 883 c15 -2 37 -2 50 0 12 2 0 4 -28 4 -27 0 -38 -2 -22 -4z"/>
<path d="M5951 886 c2 -2 20 -6 39 -10 25 -4 31 -3 20 4 -14 9 -69 15 -59 6z"/>
<path d="M6378 813 c6 -2 18 -2 25 0 6 3 1 5 -13 5 -14 0 -19 -2 -12 -5z"/>
<path d="M5850 790 c0 -13 11 -13 30 0 12 8 11 10 -7 10 -13 0 -23 -4 -23 -10z"/>
<path d="M6198 793 c7 -3 16 -2 19 1 4 3 -2 6 -13 5 -11 0 -14 -3 -6 -6z"/>
<path d="M3285 572 c-15 -16 19 -22 113 -21 59 1 98 3 87 5 -43 8 -196 20
-200 16z"/>
<path d="M3500 576 c0 -17 55 -24 141 -17 l94 8 -71 2 c-39 0 -92 4 -118 7
-25 4 -46 4 -46 0z"/>
<path d="M902 300 c0 -14 2 -19 5 -12 2 6 2 18 0 25 -3 6 -5 1 -5 -13z"/>
<path d="M1081 294 c0 -11 3 -14 6 -6 3 7 2 16 -1 19 -3 4 -6 -2 -5 -13z"/>
<path d="M788 263 c5 -21 7 -23 10 -9 2 10 0 22 -6 28 -6 6 -7 0 -4 -19z"/>
<path d="M731 254 c0 -11 3 -14 6 -6 3 7 2 16 -1 19 -3 4 -6 -2 -5 -13z"/>
<path d="M913 193 c9 -2 25 -2 35 0 9 3 1 5 -18 5 -19 0 -27 -2 -17 -5z"/>
</g>
</svg>
