<?xml version="1.0" standalone="no"?>
<!DOCTYPE svg PUBLIC "-//W3C//DTD SVG 20010904//EN"
 "http://www.w3.org/TR/2001/REC-SVG-20010904/DTD/svg10.dtd">
<svg version="1.0" xmlns="http://www.w3.org/2000/svg"
 width="836.000000pt" height="560.000000pt" viewBox="0 0 836.000000 560.000000"
 preserveAspectRatio="xMidYMid meet">
<metadata>
Created by potrace 1.13, written by Peter Selinger 2001-2015
</metadata>
<g transform="translate(0.000000,560.000000) scale(0.100000,-0.100000)"
fill="#000000" stroke="none">
<path d="M1446 3660 c-162 -26 -307 -85 -459 -187 -314 -211 -556 -564 -633
-923 -24 -115 -24 -328 0 -425 33 -129 89 -228 179 -320 126 -127 233 -174
417 -182 305 -14 599 116 865 382 207 206 342 452 401 725 25 118 25 349 0
440 -34 126 -82 207 -181 305 -97 97 -168 140 -280 170 -75 20 -231 27 -309
15z m199 -95 c82 -21 156 -75 205 -147 53 -80 71 -142 77 -270 12 -245 -64
-563 -207 -864 -76 -161 -145 -261 -255 -369 -156 -155 -281 -211 -453 -203
-79 3 -106 9 -147 30 -103 54 -168 148 -200 291 -14 63 -16 110 -13 230 8 241
67 462 192 723 100 207 203 344 339 452 153 122 312 165 462 127z"/>
<path d="M3145 3664 c-231 -36 -399 -192 -435 -405 -21 -125 3 -244 70 -344
22 -33 133 -162 247 -288 115 -126 225 -253 246 -284 53 -79 71 -147 65 -254
-7 -112 -37 -179 -115 -258 -80 -79 -145 -105 -273 -105 -87 -1 -101 2 -162
31 -166 79 -261 230 -275 439 -6 89 -7 94 -29 94 -19 0 -24 -7 -29 -42 -3 -24
-25 -172 -49 -331 l-42 -287 23 0 c15 0 28 10 38 30 21 40 57 62 103 62 21 0
103 -22 182 -47 126 -41 159 -48 255 -52 186 -9 319 37 443 152 127 118 186
256 186 435 0 216 -37 281 -360 622 -228 240 -264 301 -264 437 0 135 47 216
154 271 65 33 74 35 170 35 88 0 108 -4 157 -26 126 -60 189 -172 206 -373 5
-70 8 -77 30 -82 13 -4 25 -5 27 -3 2 2 26 123 55 269 29 146 55 275 58 288 5
20 1 22 -30 22 -20 0 -37 -6 -40 -14 -8 -19 -88 -56 -123 -56 -16 0 -83 14
-149 30 -116 29 -270 44 -340 34z"/>
<path d="M4230 3611 c0 -15 10 -21 43 -26 82 -13 146 -35 162 -57 19 -29 20
-115 1 -205 -23 -106 -382 -1391 -407 -1457 -32 -83 -72 -119 -153 -141 -51
-14 -66 -22 -66 -36 0 -18 27 -19 758 -19 l757 0 94 240 c52 132 92 242 90
244 -2 2 -13 6 -24 9 -16 5 -29 -6 -62 -51 -147 -201 -297 -297 -518 -333
-110 -17 -448 -18 -497 -1 -42 15 -78 54 -78 86 0 28 200 768 211 780 5 6 87
5 206 -1 219 -11 251 -19 273 -73 11 -28 10 -155 -2 -211 -2 -9 7 -15 24 -17
31 -4 13 -51 148 407 44 151 79 275 77 276 -1 2 -11 5 -23 9 -17 5 -26 -5 -63
-79 -52 -101 -102 -156 -157 -173 -58 -17 -170 -30 -321 -36 -121 -5 -133 -4
-132 12 0 9 44 176 97 371 66 238 104 361 118 376 28 31 114 40 329 32 209 -8
284 -20 355 -55 77 -39 95 -77 95 -204 -1 -94 0 -97 23 -103 14 -3 27 -4 30
-1 4 4 91 435 92 454 0 1 -333 2 -740 2 -722 0 -740 0 -740 -19z"/>
<path d="M6030 3611 c0 -16 12 -21 67 -31 142 -24 168 -51 161 -163 -6 -89
-393 -1488 -438 -1584 -31 -67 -62 -89 -157 -113 -33 -8 -43 -15 -43 -31 0
-21 0 -21 488 -16 440 4 498 7 601 26 200 37 401 116 545 214 210 142 386 393
452 642 24 87 27 120 28 260 1 186 -13 255 -74 380 -118 243 -344 390 -655
425 -49 5 -289 10 -532 10 -428 0 -443 -1 -443 -19z m950 -96 c165 -40 294
-142 364 -287 123 -258 72 -688 -120 -1010 -63 -106 -212 -257 -309 -314 -147
-86 -301 -129 -501 -141 -129 -7 -200 6 -239 44 -33 34 -33 95 -1 218 47 177
396 1421 407 1448 12 28 31 43 78 58 38 13 245 2 321 -16z"/>
</g>
</svg>
