<?xml version="1.0" standalone="no"?>
<!DOCTYPE svg PUBLIC "-//W3C//DTD SVG 20010904//EN"
 "http://www.w3.org/TR/2001/REC-SVG-20010904/DTD/svg10.dtd">
<svg version="1.0" xmlns="http://www.w3.org/2000/svg"
 width="1188.000000pt" height="147.000000pt" viewBox="0 0 1188.000000 147.000000"
 preserveAspectRatio="xMidYMid meet">
<metadata>
Created by potrace 1.13, written by Peter Selinger 2001-2015
</metadata>
<g transform="translate(0.000000,147.000000) scale(0.100000,-0.100000)"
fill="#000000" stroke="none">
<path d="M1659 987 c-106 -30 -175 -93 -226 -203 -21 -47 -27 -74 -27 -134 0
-44 5 -85 13 -100 61 -115 202 -150 338 -84 69 33 146 118 173 192 17 45 21
74 18 139 -3 73 -6 85 -34 120 -16 21 -47 46 -67 56 -48 24 -131 30 -188 14z
m131 -52 c16 -9 36 -29 45 -45 32 -63 7 -230 -47 -310 -77 -112 -215 -133
-263 -40 -35 68 -8 235 53 324 50 72 147 105 212 71z"/>
<path d="M3675 981 c-52 -23 -102 -81 -111 -127 -9 -51 15 -97 73 -137 123
-83 149 -135 97 -196 -63 -75 -180 -35 -200 68 -4 20 -12 31 -24 31 -14 0 -18
-13 -23 -67 -10 -104 -9 -123 8 -123 9 0 18 7 21 15 8 19 28 19 82 -2 36 -13
51 -14 95 -4 96 21 157 94 157 185 0 54 -30 94 -120 157 -31 22 -62 51 -68 64
-13 28 -4 63 21 83 23 19 81 26 106 12 28 -14 61 -68 61 -97 0 -16 6 -23 19
-23 16 0 20 10 26 73 3 39 9 80 11 90 7 22 -24 23 -41 1 -11 -16 -15 -16 -60
0 -61 20 -80 20 -130 -3z"/>
<path d="M6127 976 c-4 -10 4 -18 24 -25 19 -6 29 -17 29 -30 0 -33 -82 -415
-91 -427 -5 -7 -22 -14 -38 -17 -16 -3 -31 -13 -34 -21 -6 -14 19 -16 218 -16
l225 0 35 70 c19 38 35 72 35 75 0 16 -35 0 -58 -26 -41 -49 -94 -69 -188 -69
-44 0 -83 2 -86 5 -3 3 4 50 15 105 l20 100 71 0 c79 0 103 -11 108 -50 2 -14
10 -25 18 -25 10 0 22 25 37 80 25 94 28 125 11 125 -7 0 -21 -14 -30 -30 -22
-38 -53 -50 -134 -50 -48 0 -64 4 -64 14 0 32 34 162 44 168 6 4 48 8 94 8 69
0 85 -3 102 -20 11 -11 20 -29 20 -40 0 -13 7 -20 18 -20 14 0 21 13 30 51 20
86 38 79 -207 79 -180 0 -220 -3 -224 -14z"/>
<path d="M8810 976 c0 -8 14 -19 30 -25 17 -5 30 -14 30 -20 0 -32 -84 -410
-96 -428 -7 -12 -27 -24 -44 -28 -16 -4 -30 -13 -30 -21 0 -20 239 -19 334 1
180 38 283 166 274 338 -7 150 -95 197 -369 197 -104 0 -129 -3 -129 -14z
m315 -62 c22 -10 50 -35 63 -54 21 -31 23 -44 20 -105 -6 -85 -30 -136 -91
-192 -64 -59 -197 -95 -225 -60 -8 9 2 70 33 215 24 111 47 207 51 213 10 17
103 6 149 -17z"/>
<path d="M9780 864 c-83 -73 -91 -84 -60 -84 16 0 20 -5 16 -17 -19 -69 -56
-282 -51 -300 3 -13 16 -25 30 -29 46 -11 145 38 145 72 0 13 -4 13 -29 -2
-16 -9 -36 -14 -45 -11 -19 7 -17 30 18 187 l21 95 40 5 c27 3 41 10 43 23 3
14 -4 17 -36 17 l-40 0 13 55 c7 30 12 55 11 54 0 0 -35 -30 -76 -65z"/>
<path d="M2055 809 c-75 -22 -99 -40 -62 -49 12 -3 23 -15 25 -26 2 -11 -16
-108 -38 -215 -42 -196 -51 -219 -92 -219 -10 0 -18 -7 -18 -15 0 -12 18 -15
105 -15 87 0 105 3 105 15 0 8 -8 15 -19 15 -34 0 -40 20 -27 85 10 51 15 59
32 56 105 -21 197 31 250 144 28 59 32 150 9 195 -26 51 -104 61 -178 23 -28
-14 -29 -14 -22 6 3 12 5 21 3 20 -2 0 -34 -9 -73 -20z m170 -64 c34 -33 34
-110 1 -180 -32 -68 -55 -87 -101 -83 -61 5 -67 25 -40 143 18 79 28 104 49
122 35 30 61 29 91 -2z"/>
<path d="M2492 804 c-74 -37 -125 -115 -137 -211 -9 -70 25 -133 81 -152 65
-23 124 -1 198 71 47 45 57 61 48 70 -9 9 -20 4 -50 -24 -69 -66 -125 -77
-167 -32 -24 26 -43 103 -30 123 4 7 53 11 131 11 l124 0 0 48 c0 57 -20 89
-66 108 -47 20 -73 18 -132 -12z"/>
<path d="M2916 805 c-46 -24 -46 -24 -46 -3 0 18 -4 20 -32 14 -102 -20 -131
-37 -88 -51 25 -8 25 -22 0 -143 -26 -122 -34 -140 -65 -152 -14 -5 -25 -14
-25 -20 0 -15 182 -9 187 6 2 6 -5 14 -17 17 -25 7 -25 22 1 144 26 119 52
156 109 151 32 -3 35 -6 38 -36 2 -18 -7 -81 -19 -139 -21 -99 -24 -107 -51
-117 -15 -6 -28 -16 -28 -23 0 -10 24 -13 95 -13 78 0 95 3 95 15 0 8 -6 15
-14 15 -33 0 -35 24 -11 135 32 147 32 178 -1 204 -35 28 -71 26 -128 -4z"/>
<path d="M4088 816 c-21 -8 -49 -21 -64 -30 -37 -25 -81 -100 -95 -163 -11
-48 -10 -59 7 -100 27 -65 61 -88 132 -87 122 0 220 101 230 235 6 74 -15 114
-71 140 -49 22 -88 23 -139 5z m92 -46 c26 -26 34 -61 27 -129 -7 -77 -38
-137 -83 -159 -32 -15 -38 -15 -62 -1 -55 31 -63 146 -16 244 28 60 96 83 134
45z"/>
<path d="M4945 820 c-12 -4 -27 -15 -34 -24 -18 -22 -30 -20 -24 4 4 13 0 20
-9 20 -28 0 -136 -42 -141 -55 -4 -8 0 -11 12 -8 37 9 39 -17 15 -142 -24
-122 -36 -145 -76 -145 -10 0 -18 -7 -18 -15 0 -12 18 -15 100 -15 82 0 100 3
100 15 0 8 -6 15 -14 15 -33 0 -35 24 -12 130 33 151 46 170 105 147 25 -9 33
-8 50 8 48 43 8 91 -54 65z"/>
<path d="M5151 815 c-80 -25 -151 -118 -166 -217 -10 -67 21 -133 72 -154 71
-30 157 3 222 84 44 56 21 64 -34 13 -33 -31 -53 -41 -78 -41 -88 0 -120 103
-66 212 43 86 132 107 141 34 4 -36 31 -55 55 -40 50 31 42 84 -17 108 -48 19
-70 19 -129 1z"/>
<path d="M5472 804 c-74 -37 -125 -115 -137 -211 -9 -70 25 -133 81 -152 65
-23 124 -1 198 71 47 45 57 61 48 70 -9 9 -20 4 -50 -24 -69 -66 -125 -77
-167 -32 -24 26 -43 103 -30 123 4 7 53 11 131 11 l124 0 0 48 c0 57 -20 89
-66 108 -47 20 -73 18 -132 -12z"/>
<path d="M6756 805 c-46 -24 -46 -24 -46 -3 0 18 -4 20 -32 14 -102 -20 -131
-37 -88 -51 25 -8 25 -22 0 -143 -26 -122 -34 -140 -65 -152 -14 -5 -25 -14
-25 -20 0 -15 182 -9 187 6 2 6 -5 14 -17 17 -25 7 -25 22 1 144 26 119 52
156 109 151 32 -3 35 -6 38 -36 2 -18 -7 -81 -19 -139 -21 -99 -24 -107 -51
-117 -15 -6 -28 -16 -28 -23 0 -10 24 -13 95 -13 78 0 95 3 95 15 0 8 -6 15
-14 15 -33 0 -35 24 -11 135 32 147 32 178 -1 204 -35 28 -71 26 -128 -4z"/>
<path d="M7082 804 c-74 -37 -125 -115 -137 -211 -9 -70 25 -133 81 -152 65
-23 124 -1 198 71 47 45 57 61 48 70 -9 9 -20 4 -50 -24 -69 -66 -125 -77
-167 -32 -24 26 -43 103 -30 123 4 7 53 11 131 11 l124 0 0 48 c0 57 -20 89
-66 108 -47 20 -73 18 -132 -12z"/>
<path d="M7525 820 c-12 -4 -27 -15 -34 -24 -18 -22 -30 -20 -24 4 4 13 0 20
-9 20 -28 0 -136 -42 -141 -55 -4 -8 0 -11 12 -8 37 9 39 -17 15 -142 -24
-122 -36 -145 -76 -145 -10 0 -18 -7 -18 -15 0 -12 18 -15 100 -15 82 0 100 3
100 15 0 8 -6 15 -14 15 -33 0 -35 24 -12 130 33 151 46 170 105 147 25 -9 33
-8 50 8 48 43 8 91 -54 65z"/>
<path d="M7748 820 c-46 -14 -85 -48 -107 -93 -26 -55 -27 -87 0 -120 l20 -27
-35 -30 c-41 -37 -53 -65 -34 -87 11 -13 9 -18 -12 -32 -40 -25 -70 -59 -70
-76 0 -9 13 -29 28 -45 50 -50 150 -49 257 1 62 29 95 71 95 120 0 55 -26 69
-139 76 -51 3 -94 9 -96 13 -12 19 37 42 95 44 43 2 69 9 88 23 43 32 72 82
72 124 0 38 1 39 35 39 31 0 35 3 35 25 0 22 -4 25 -39 25 -21 0 -58 7 -81 15
-47 16 -71 18 -112 5z m66 -52 c39 -55 6 -168 -49 -168 -34 0 -50 27 -49 80 3
93 59 143 98 88z m24 -344 c24 -7 8 -47 -28 -68 -27 -16 -52 -21 -111 -21
-105 0 -132 24 -89 78 21 26 22 26 118 21 53 -3 103 -8 110 -10z"/>
<path d="M9468 819 c-42 -12 -101 -72 -96 -97 4 -20 53 -28 73 -12 8 6 17 25
20 41 14 61 85 61 85 0 0 -55 -9 -66 -75 -90 -125 -44 -183 -113 -156 -184 20
-53 82 -58 153 -12 l36 24 6 -24 c8 -31 38 -40 75 -20 31 16 68 61 58 71 -3 3
-15 0 -27 -6 -12 -6 -24 -9 -28 -6 -3 3 4 53 16 110 27 129 28 168 2 191 -23
21 -91 28 -142 14z"/>
<path d="M10038 819 c-42 -12 -101 -72 -96 -97 4 -20 53 -28 73 -12 8 6 17 25
20 41 14 61 85 61 85 0 0 -55 -9 -66 -75 -90 -125 -44 -183 -113 -156 -184 20
-53 82 -58 153 -12 l36 24 6 -24 c8 -31 38 -40 75 -20 31 16 68 61 58 71 -3 3
-15 0 -27 -6 -12 -6 -24 -9 -28 -6 -3 3 4 53 16 110 27 129 28 168 2 191 -23
21 -91 28 -142 14z"/>
<path d="M4350 805 c0 -8 6 -15 14 -15 25 0 25 -26 0 -141 -35 -157 -26 -202
42 -215 27 -5 47 0 84 19 l49 25 3 -22 3 -22 63 19 c38 11 62 24 62 33 0 8 -7
14 -15 14 -9 0 -18 6 -21 14 -4 11 28 185 53 284 5 21 3 22 -65 22 -53 0 -71
-4 -76 -15 -4 -10 1 -15 15 -15 32 0 34 -27 11 -139 -24 -115 -47 -151 -98
-151 -47 0 -51 35 -21 178 15 70 27 130 27 135 0 4 -29 7 -65 7 -51 0 -65 -3
-65 -15z"/>
<path d="M8000 809 c0 -6 8 -18 19 -27 13 -12 31 -67 56 -169 l37 -153 -31
-49 c-36 -55 -45 -61 -84 -54 -58 11 -97 -18 -81 -60 9 -25 58 -31 99 -11 50
23 85 71 215 289 62 105 123 198 136 208 38 29 29 37 -41 37 -51 0 -65 -3 -65
-15 0 -8 7 -15 15 -15 8 0 15 -5 15 -12 0 -23 -114 -208 -120 -196 -14 28 -42
177 -37 192 4 9 16 16 27 16 11 0 20 7 20 15 0 12 -17 15 -90 15 -58 0 -90 -4
-90 -11z"/>
</g>
</svg>
